<svg xmlns="http://www.w3.org/2000/svg" xmlns:xlink="http://www.w3.org/1999/xlink" width="2048" zoomAndPan="magnify" viewBox="0 0 1536 921.749994" height="1229" preserveAspectRatio="xMidYMid meet" version="1.2"><defs><clipPath id="2d3da74e04"><path d="M 563.378906 242.1875 L 972.597656 242.1875 L 972.597656 679.3125 L 563.378906 679.3125 Z M 563.378906 242.1875 "/></clipPath></defs><g id="609db56988"><path style=" stroke:none;fill-rule:nonzero;fill:#dec449;fill-opacity:1;" d="M 602.96875 456.960938 C 602.917969 456.980469 602.867188 456.992188 602.8125 457.011719 C 602.855469 457.125 602.890625 457.242188 602.96875 457.378906 C 602.96875 457.3125 602.96875 457.140625 602.96875 456.960938 "/><path style=" stroke:none;fill-rule:nonzero;fill:#dec449;fill-opacity:1;" d="M 711.183594 568.902344 C 711.164062 568.910156 711.144531 568.914062 711.128906 568.921875 C 711.148438 569.054688 711.148438 569.1875 711.183594 569.320312 C 711.183594 569.253906 711.183594 569.085938 711.183594 568.902344 "/><path style=" stroke:none;fill-rule:nonzero;fill:#dec449;fill-opacity:1;" d="M 690.660156 298.378906 C 690.644531 298.335938 690.632812 298.292969 690.621094 298.253906 C 690.488281 298.296875 690.378906 298.332031 690.242188 298.378906 C 690.308594 298.378906 690.480469 298.378906 690.660156 298.378906 "/><path style=" stroke:none;fill-rule:nonzero;fill:#dec449;fill-opacity:1;" d="M 627.269531 569.984375 C 627.378906 570.089844 627.484375 570.199219 627.59375 570.304688 C 627.648438 570.175781 627.695312 570.070312 627.769531 569.914062 C 627.597656 569.964844 627.433594 569.964844 627.269531 569.984375 "/><path style=" stroke:none;fill-rule:nonzero;fill:#dec449;fill-opacity:1;" d="M 632.824219 643.53125 C 632.707031 643.570312 632.589844 643.605469 632.472656 643.640625 C 632.589844 643.746094 632.71875 643.832031 632.824219 643.945312 C 632.824219 643.882812 632.824219 643.714844 632.824219 643.53125 "/><path style=" stroke:none;fill-rule:nonzero;fill:#dec449;fill-opacity:1;" d="M 899.617188 430.839844 C 899.617188 430.839844 899.613281 430.839844 899.613281 430.839844 C 899.613281 430.976562 899.617188 431.105469 899.617188 431.257812 C 899.617188 431.191406 899.617188 431.023438 899.617188 430.839844 "/><path style=" stroke:none;fill-rule:nonzero;fill:#dec449;fill-opacity:1;" d="M 694.390625 369.273438 C 694.367188 369.207031 694.347656 369.136719 694.324219 369.066406 C 694.203125 369.136719 694.09375 369.203125 693.972656 369.273438 C 694.039062 369.273438 694.207031 369.273438 694.390625 369.273438 "/><path style=" stroke:none;fill-rule:nonzero;fill:#dec449;fill-opacity:1;" d="M 680.046875 253.847656 C 679.933594 253.964844 679.816406 254.082031 679.699219 254.195312 C 679.910156 254.179688 680.097656 254.148438 680.320312 254.140625 C 680.207031 254.027344 680.136719 253.945312 680.046875 253.847656 "/><path style=" stroke:none;fill-rule:nonzero;fill:#dec449;fill-opacity:1;" d="M 746.628906 404.722656 C 746.59375 404.617188 746.5625 404.511719 746.527344 404.402344 C 746.425781 404.511719 746.316406 404.605469 746.214844 404.722656 C 746.277344 404.722656 746.449219 404.722656 746.628906 404.722656 "/><path style=" stroke:none;fill-rule:nonzero;fill:#dec449;fill-opacity:1;" d="M 642.152344 281.988281 C 641.867188 281.875 641.511719 281.746094 641.140625 281.632812 C 640.972656 281.582031 640.640625 282.0625 640.363281 282.367188 C 640.902344 282.277344 641.542969 282.222656 642.328125 282.242188 C 642.253906 282.15625 642.210938 282.074219 642.152344 281.988281 "/><path style=" stroke:none;fill-rule:nonzero;fill:#dec449;fill-opacity:1;" d="M 668.269531 419.648438 C 668.21875 419.5 668.175781 419.351562 668.128906 419.195312 C 668.03125 419.351562 667.957031 419.492188 667.855469 419.648438 C 667.917969 419.648438 668.089844 419.648438 668.269531 419.648438 "/><path style=" stroke:none;fill-rule:nonzero;fill:#dec449;fill-opacity:1;" d="M 670.136719 400.988281 C 670.078125 401.011719 670.015625 401.027344 669.953125 401.046875 C 670.011719 401.167969 670.085938 401.289062 670.136719 401.40625 C 670.136719 401.339844 670.136719 401.171875 670.136719 400.988281 "/><g clip-rule="nonzero" clip-path="url(#2d3da74e04)"><path style=" stroke:none;fill-rule:nonzero;fill:#dec449;fill-opacity:1;" d="M 936 546.515625 C 935.792969 546.101562 935.515625 545.703125 935.414062 545.261719 C 935.382812 545.109375 935.792969 544.855469 936 544.648438 C 936.222656 545.054688 936.445312 545.460938 936.664062 545.851562 C 936.414062 546.101562 936.207031 546.308594 936 546.515625 Z M 891.222656 585.695312 C 891.015625 585.488281 890.808594 585.277344 890.558594 585.027344 C 890.773438 584.640625 890.996094 584.234375 891.222656 583.828125 C 891.429688 584.035156 891.839844 584.289062 891.804688 584.441406 C 891.707031 584.878906 891.429688 585.277344 891.222656 585.695312 Z M 887.171875 592.808594 C 887.019531 592.839844 886.765625 592.429688 886.558594 592.226562 C 886.964844 592 887.367188 591.777344 887.761719 591.5625 C 888.007812 591.808594 888.214844 592.015625 888.425781 592.226562 C 888.007812 592.433594 887.609375 592.710938 887.171875 592.808594 Z M 879.707031 596.539062 C 879.554688 596.574219 879.300781 596.164062 879.097656 595.957031 C 879.511719 595.75 879.90625 595.472656 880.347656 595.371094 C 880.5 595.339844 880.753906 595.75 880.960938 595.957031 C 880.546875 596.164062 880.148438 596.441406 879.707031 596.539062 Z M 682.582031 658.105469 C 682.144531 658.007812 681.746094 657.730469 681.332031 657.523438 C 681.539062 657.316406 681.746094 657.109375 681.992188 656.859375 C 682.386719 657.078125 682.792969 657.300781 683.195312 657.523438 C 682.988281 657.730469 682.738281 658.140625 682.582031 658.105469 Z M 678.210938 673.03125 C 678.058594 673.066406 677.808594 672.65625 677.597656 672.449219 C 678.015625 672.242188 678.414062 671.964844 678.851562 671.867188 C 679.003906 671.832031 679.257812 672.242188 679.464844 672.449219 C 679.050781 672.65625 678.652344 672.933594 678.210938 673.03125 Z M 618.828125 637.933594 C 618.621094 637.726562 618.210938 637.472656 618.246094 637.320312 C 618.34375 636.882812 618.621094 636.484375 618.828125 636.066406 C 619.039062 636.277344 619.242188 636.484375 619.492188 636.730469 C 619.277344 637.125 619.054688 637.527344 618.828125 637.933594 Z M 831.519531 255.464844 C 831.3125 255.257812 830.902344 255.003906 830.9375 254.851562 C 831.035156 254.414062 831.3125 254.011719 831.519531 253.597656 C 831.726562 253.808594 831.933594 254.011719 832.183594 254.261719 C 831.96875 254.65625 831.742188 255.058594 831.519531 255.464844 Z M 814.730469 251.734375 C 814.519531 251.320312 814.242188 250.917969 814.144531 250.480469 C 814.113281 250.328125 814.519531 250.074219 814.730469 249.867188 C 814.933594 250.28125 815.214844 250.679688 815.3125 251.121094 C 815.34375 251.273438 814.933594 251.527344 814.730469 251.734375 Z M 796.070312 285.316406 C 795.863281 284.902344 795.585938 284.503906 795.488281 284.0625 C 795.453125 283.910156 795.863281 283.65625 796.070312 283.449219 C 796.292969 283.855469 796.519531 284.261719 796.734375 284.652344 C 796.484375 284.902344 796.277344 285.109375 796.070312 285.316406 Z M 717.394531 256.980469 C 717.238281 257.015625 716.984375 256.605469 716.78125 256.398438 C 717.183594 256.171875 717.589844 255.949219 717.980469 255.734375 C 718.230469 255.984375 718.4375 256.191406 718.644531 256.398438 C 718.230469 256.605469 717.832031 256.882812 717.394531 256.980469 Z M 709.929688 251.382812 C 709.777344 251.417969 709.523438 251.007812 709.316406 250.800781 C 709.71875 250.578125 710.125 250.351562 710.519531 250.136719 C 710.769531 250.386719 710.972656 250.59375 711.183594 250.800781 C 710.765625 251.007812 710.367188 251.285156 709.929688 251.382812 Z M 709.929688 284.964844 C 709.777344 285 709.523438 284.589844 709.316406 284.382812 C 709.71875 284.160156 710.125 283.9375 710.519531 283.71875 C 710.769531 283.96875 710.972656 284.175781 711.183594 284.382812 C 710.769531 284.589844 710.367188 284.867188 709.929688 284.964844 Z M 667.335938 264.792969 C 667.113281 264.386719 666.890625 263.984375 666.671875 263.589844 C 666.921875 263.339844 667.132812 263.136719 667.335938 262.929688 C 667.546875 263.339844 667.824219 263.742188 667.921875 264.179688 C 667.953125 264.332031 667.546875 264.585938 667.335938 264.792969 Z M 617.234375 361.542969 C 616.839844 361.324219 616.4375 361.101562 616.03125 360.878906 C 616.238281 360.667969 616.492188 360.257812 616.644531 360.292969 C 617.085938 360.390625 617.480469 360.667969 617.898438 360.878906 C 617.6875 361.082031 617.484375 361.292969 617.234375 361.542969 Z M 607.636719 404.722656 C 607.429688 404.511719 607.015625 404.261719 607.054688 404.109375 C 607.148438 403.667969 607.429688 403.269531 607.636719 402.855469 C 607.84375 403.0625 608.050781 403.269531 608.296875 403.519531 C 608.082031 403.910156 607.859375 404.316406 607.636719 404.722656 Z M 603.585938 419.296875 C 603.429688 419.332031 603.179688 418.921875 602.96875 418.714844 C 603.375 418.488281 603.78125 418.265625 604.171875 418.050781 C 604.421875 418.300781 604.628906 418.507812 604.835938 418.714844 C 604.421875 418.921875 604.023438 419.199219 603.585938 419.296875 Z M 653.957031 539.402344 C 654.398438 539.5 654.796875 539.777344 655.210938 539.984375 C 655.003906 540.191406 654.796875 540.398438 654.546875 540.648438 C 654.15625 540.433594 653.75 540.210938 653.347656 539.984375 C 653.550781 539.777344 653.804688 539.367188 653.957031 539.402344 Z M 700.972656 579.714844 C 702.398438 580.308594 702.910156 580.519531 703.421875 580.734375 C 702.890625 581.144531 702.402344 581.738281 701.804688 581.898438 C 701.378906 582.011719 700.796875 581.539062 700.28125 581.324219 C 700.566406 580.664062 700.847656 580.003906 700.972656 579.714844 Z M 704.714844 574.5 C 705.007812 574.898438 705.316406 575.316406 705.65625 575.777344 C 705.085938 577.285156 704.785156 577.691406 704.492188 578.070312 C 704.234375 577.3125 703.820312 576.554688 703.78125 575.785156 C 703.761719 575.375 704.382812 574.929688 704.714844 574.5 Z M 706.671875 572.785156 C 706.492188 573.34375 706.332031 573.832031 706.1875 574.269531 C 705.988281 574.070312 705.785156 573.867188 705.585938 573.667969 C 705.949219 573.375 706.308594 573.082031 706.671875 572.785156 Z M 707.246094 573.378906 C 707.074219 573.691406 706.84375 573.972656 706.613281 574.253906 C 707.074219 573.179688 707.273438 573.328125 707.246094 573.378906 Z M 865.101562 516.664062 C 865.3125 517.078125 865.589844 517.476562 865.683594 517.914062 C 865.71875 518.070312 865.308594 518.320312 865.101562 518.53125 C 864.894531 518.113281 864.617188 517.714844 864.519531 517.277344 C 864.484375 517.125 864.894531 516.871094 865.101562 516.664062 Z M 868.511719 428.625 C 868.359375 428.660156 868.105469 428.25 867.902344 428.042969 C 868.316406 427.835938 868.714844 427.558594 869.152344 427.457031 C 869.304688 427.425781 869.558594 427.835938 869.765625 428.042969 C 869.351562 428.25 868.953125 428.527344 868.511719 428.625 Z M 668.90625 405.019531 C 669.316406 405.25 670.058594 405.464844 670.074219 405.722656 C 670.125 406.535156 669.898438 407.367188 669.753906 408.382812 C 669.070312 407.957031 668.320312 407.683594 668.332031 407.460938 C 668.390625 406.636719 668.695312 405.828125 668.90625 405.019531 Z M 665.152344 415.566406 C 665 415.601562 664.746094 415.191406 664.539062 414.984375 C 664.953125 414.777344 665.351562 414.496094 665.792969 414.398438 C 665.945312 414.363281 666.199219 414.777344 666.402344 414.984375 C 665.992188 415.191406 665.59375 415.46875 665.152344 415.566406 Z M 674.53125 488.945312 C 674.921875 489.164062 675.328125 489.386719 675.734375 489.609375 C 675.527344 489.820312 675.273438 490.226562 675.121094 490.195312 C 674.679688 490.097656 674.28125 489.820312 673.867188 489.609375 C 674.074219 489.402344 674.28125 489.195312 674.53125 488.945312 Z M 695.640625 494.625 C 695.796875 494.589844 696.046875 495 696.257812 495.207031 C 695.84375 495.414062 695.441406 495.691406 695.003906 495.789062 C 694.851562 495.824219 694.597656 495.414062 694.390625 495.207031 C 694.804688 495 695.203125 494.722656 695.640625 494.625 Z M 696.707031 498.570312 C 697.097656 498.273438 697.640625 498.179688 698.121094 498.007812 C 698.121094 498.1875 698.121094 498.355469 698.121094 498.421875 C 698.433594 497.902344 698.742188 497.488281 699.054688 497.125 C 698.742188 497.488281 698.433594 497.902344 698.121094 498.421875 C 697.753906 499.125 697.386719 499.414062 697.015625 499.699219 C 696.902344 499.308594 696.589844 498.65625 696.707031 498.570312 Z M 724.855469 515.148438 C 725.292969 515.242188 725.691406 515.523438 726.109375 515.730469 C 725.898438 515.9375 725.691406 516.144531 725.445312 516.394531 C 725.050781 516.179688 724.648438 515.953125 724.242188 515.730469 C 724.449219 515.523438 724.703125 515.113281 724.855469 515.148438 Z M 722.988281 453.578125 C 723.429688 453.675781 723.828125 453.957031 724.242188 454.164062 C 724.035156 454.371094 723.828125 454.578125 723.578125 454.824219 C 723.1875 454.609375 722.78125 454.386719 722.375 454.164062 C 722.582031 453.957031 722.835938 453.546875 722.988281 453.578125 Z M 770.269531 447.980469 C 770.425781 447.949219 770.675781 448.359375 770.882812 448.5625 C 770.476562 448.789062 770.074219 449.011719 769.683594 449.230469 C 769.433594 448.980469 769.226562 448.773438 769.019531 448.5625 C 769.433594 448.359375 769.832031 448.078125 770.269531 447.980469 Z M 717.394531 445.417969 C 717.238281 445.449219 716.984375 445.039062 716.78125 444.835938 C 717.195312 444.625 717.589844 444.347656 718.03125 444.25 C 718.183594 444.214844 718.4375 444.625 718.644531 444.835938 C 718.230469 445.039062 717.832031 445.320312 717.394531 445.417969 Z M 717.613281 479.347656 C 717.542969 479.285156 717.480469 479.214844 717.410156 479.152344 C 718.207031 477.984375 718.472656 478.171875 718.4375 478.226562 C 718.21875 478.628906 717.898438 478.980469 717.613281 479.347656 Z M 717.128906 448.246094 C 717.09375 448.09375 717.503906 447.839844 717.710938 447.632812 C 717.9375 448.039062 718.160156 448.441406 718.375 448.835938 C 718.125 449.082031 717.917969 449.289062 717.710938 449.5 C 717.503906 449.082031 717.226562 448.683594 717.128906 448.246094 Z M 716.78125 478.515625 C 717.140625 478.222656 717.503906 477.929688 717.863281 477.636719 C 717.597656 478.152344 717.382812 478.558594 717.179688 478.921875 C 717.046875 478.785156 716.914062 478.652344 716.78125 478.515625 Z M 716.78125 479.628906 C 716.183594 480.628906 715.925781 480.847656 715.675781 481.042969 C 715.558594 480.648438 715.25 480.003906 715.367188 479.914062 C 715.753906 479.617188 716.296875 479.519531 716.78125 479.347656 C 716.78125 479.445312 716.78125 479.535156 716.78125 479.628906 Z M 713 469.957031 C 712.574219 470.070312 711.992188 469.597656 711.476562 469.382812 C 711.761719 468.722656 712.042969 468.0625 712.167969 467.773438 C 713.59375 468.367188 714.105469 468.578125 714.617188 468.792969 C 714.082031 469.203125 713.597656 469.796875 713 469.957031 Z M 712.382812 447.902344 C 712.632812 448.148438 712.839844 448.359375 713.046875 448.5625 C 712.632812 448.773438 712.234375 449.050781 711.792969 449.148438 C 711.640625 449.183594 711.386719 448.773438 711.183594 448.5625 C 711.589844 448.34375 711.992188 448.117188 712.382812 447.902344 Z M 709.929688 452.878906 C 709.777344 452.914062 709.523438 452.503906 709.316406 452.296875 C 709.71875 452.070312 710.125 451.851562 710.519531 451.632812 C 710.765625 451.882812 710.972656 452.089844 711.183594 452.296875 C 710.765625 452.503906 710.367188 452.78125 709.929688 452.878906 Z M 706.199219 471.539062 C 706.042969 471.570312 705.789062 471.160156 705.585938 470.953125 C 706 470.746094 706.398438 470.46875 706.835938 470.371094 C 706.992188 470.335938 707.242188 470.746094 707.449219 470.953125 C 707.035156 471.160156 706.636719 471.441406 706.199219 471.539062 Z M 702.785156 455.097656 C 702.5625 454.691406 702.339844 454.285156 702.121094 453.894531 C 702.371094 453.644531 702.578125 453.4375 702.785156 453.230469 C 702.996094 453.644531 703.273438 454.042969 703.367188 454.480469 C 703.40625 454.632812 702.996094 454.886719 702.785156 455.097656 Z M 805.398438 456.960938 C 805.605469 457.375 805.886719 457.773438 805.984375 458.214844 C 806.015625 458.367188 805.605469 458.621094 805.398438 458.828125 C 805.175781 458.421875 804.953125 458.015625 804.734375 457.625 C 804.984375 457.375 805.191406 457.167969 805.398438 456.960938 Z M 807.265625 468.15625 C 807.472656 468.363281 807.882812 468.613281 807.847656 468.769531 C 807.75 469.207031 807.472656 469.605469 807.265625 470.019531 C 807.058594 469.8125 806.851562 469.605469 806.601562 469.355469 C 806.816406 468.964844 807.039062 468.558594 807.265625 468.15625 Z M 811.265625 466.558594 C 811.515625 466.808594 811.722656 467.015625 811.929688 467.222656 C 811.515625 467.429688 811.117188 467.707031 810.675781 467.804688 C 810.523438 467.839844 810.269531 467.429688 810.066406 467.222656 C 810.46875 466.996094 810.875 466.773438 811.265625 466.558594 Z M 659.554688 380.117188 C 659.402344 380.152344 659.148438 379.742188 658.941406 379.535156 C 659.347656 379.308594 659.753906 379.085938 660.144531 378.871094 C 660.394531 379.121094 660.601562 379.328125 660.808594 379.535156 C 660.394531 379.742188 659.996094 380.019531 659.554688 380.117188 Z M 657.691406 383.847656 C 657.535156 383.882812 657.285156 383.472656 657.078125 383.265625 C 657.480469 383.042969 657.886719 382.816406 658.277344 382.601562 C 658.527344 382.851562 658.734375 383.058594 658.941406 383.265625 C 658.527344 383.472656 658.128906 383.75 657.691406 383.847656 Z M 656.410156 456.691406 C 656.023438 456.476562 655.617188 456.253906 655.210938 456.027344 C 655.417969 455.820312 655.671875 455.410156 655.824219 455.445312 C 656.261719 455.542969 656.660156 455.820312 657.074219 456.027344 C 656.871094 456.234375 656.660156 456.441406 656.410156 456.691406 Z M 880.027344 399.125 C 880.253906 399.53125 880.476562 399.9375 880.691406 400.324219 C 880.441406 400.574219 880.234375 400.78125 880.027344 400.988281 C 879.820312 400.574219 879.542969 400.175781 879.445312 399.738281 C 879.410156 399.585938 879.820312 399.332031 880.027344 399.125 Z M 883.761719 537.1875 C 883.964844 537.394531 884.175781 537.601562 884.421875 537.851562 C 884.207031 538.242188 883.984375 538.648438 883.761719 539.050781 C 883.550781 538.84375 883.140625 538.589844 883.175781 538.4375 C 883.273438 538 883.550781 537.601562 883.761719 537.1875 Z M 887.488281 442.035156 C 887.714844 442.441406 887.9375 442.847656 888.15625 443.238281 C 887.90625 443.484375 887.699219 443.695312 887.488281 443.902344 C 887.285156 443.484375 887.003906 443.085938 886.90625 442.648438 C 886.875 442.496094 887.285156 442.242188 887.488281 442.035156 Z M 890.902344 423.726562 C 891.34375 423.824219 891.738281 424.101562 892.152344 424.3125 C 891.949219 424.519531 891.738281 424.726562 891.492188 424.976562 C 891.101562 424.757812 890.695312 424.535156 890.289062 424.3125 C 890.496094 424.101562 890.75 423.691406 890.902344 423.726562 Z M 596.339844 337.554688 C 596.195312 337.410156 596.050781 337.269531 595.90625 337.125 C 596.886719 336.132812 597.199219 336.371094 597.167969 336.433594 C 596.949219 336.839844 596.625 337.1875 596.339844 337.554688 Z M 595.507812 336.722656 C 595.871094 336.429688 596.234375 336.136719 596.59375 335.84375 C 596.28125 336.304688 596.023438 336.679688 595.796875 337.011719 C 595.699219 336.917969 595.605469 336.820312 595.507812 336.722656 Z M 594.257812 339.101562 C 594.050781 338.585938 593.847656 338.070312 593.640625 337.554688 C 592.523438 337.1875 592.234375 336.820312 591.949219 336.449219 C 592.339844 336.335938 592.992188 336.023438 593.078125 336.140625 C 593.375 336.53125 593.46875 337.074219 593.640625 337.554688 C 594.46875 337.554688 594.960938 337.554688 595.417969 337.554688 C 594.820312 338.402344 594.535156 338.761719 594.257812 339.101562 Z M 574.050781 387.929688 C 573.84375 387.722656 573.4375 387.46875 573.46875 387.316406 C 573.566406 386.878906 573.84375 386.480469 574.050781 386.066406 C 574.257812 386.269531 574.46875 386.480469 574.71875 386.726562 C 574.5 387.117188 574.277344 387.523438 574.050781 387.929688 Z M 971.183594 462.449219 C 968.21875 460.585938 969.449219 458.859375 970.476562 456.722656 C 971.386719 454.832031 974.054688 453.007812 970.875 450.609375 C 970.238281 450.125 970.683594 448.292969 970.5 447.105469 C 969.914062 443.316406 969.433594 439.5 968.574219 435.769531 C 968.199219 434.144531 967.335938 432.339844 966.121094 431.253906 C 963.515625 428.921875 968.425781 428.125 966.875 425.886719 C 965.777344 424.300781 964.429688 421.472656 965.109375 420.308594 C 968.015625 415.339844 961.449219 412.996094 962.234375 408.742188 C 962.253906 408.628906 958.679688 408.386719 959.300781 405.574219 C 960.136719 401.792969 959.011719 397.886719 956.464844 395.695312 C 953.394531 393.058594 954.734375 388.613281 951.371094 386.476562 C 945.707031 382.875 944.074219 376.613281 941.5 371.003906 C 941.027344 369.964844 940.699219 368.75 940.714844 367.621094 C 940.738281 365.355469 940.824219 363.253906 937.632812 363.390625 C 937.621094 363.390625 937.398438 362.464844 937.578125 362.140625 C 939.140625 359.296875 935.695312 356.878906 936.933594 354.09375 C 932.753906 350.941406 931.832031 345.695312 928.957031 341.707031 C 923.941406 344.050781 925.390625 338.835938 923.960938 337.214844 C 918.878906 331.453125 917.761719 322.667969 910.015625 318.835938 C 909.433594 318.546875 908.894531 317.292969 909.015625 316.605469 C 909.484375 313.90625 907.519531 312.6875 905.976562 311.316406 C 901.824219 307.625 897.429688 304.132812 894.3125 299.492188 C 892.53125 296.839844 888.554688 296.835938 887.675781 293.078125 C 886.859375 289.601562 883.605469 287.914062 881.203125 285.539062 C 879.195312 283.554688 877.707031 281.214844 875.078125 279.546875 C 872.90625 278.164062 871.394531 276.222656 868.515625 275.355469 C 865.328125 274.394531 862.074219 272.347656 860.421875 268.828125 C 858.273438 264.253906 854.730469 261.847656 849.773438 260.222656 C 847.199219 259.378906 846.109375 259.492188 844.503906 260.988281 C 843.964844 258.527344 842.46875 257.027344 840.003906 256.484375 C 838.941406 256.25 837.347656 255.4375 836.90625 255.851562 C 833.964844 258.628906 834.09375 256.027344 834.386719 254.355469 C 835.019531 250.757812 831.152344 252.375 830.296875 250.578125 C 830.207031 250.390625 829.160156 250.363281 829.078125 250.527344 C 828.824219 251.03125 828.917969 251.699219 828.691406 252.226562 C 828.488281 252.710938 828.042969 253.089844 827.703125 253.515625 C 827.421875 253.011719 827.035156 252.539062 826.871094 252 C 825.679688 248.109375 824.167969 246.664062 822.144531 248.363281 C 819.292969 250.753906 818.109375 249.488281 816.140625 247.625 C 811.328125 243.0625 810.664062 243.109375 804.652344 246.882812 C 804.464844 247 799.035156 246.066406 798.867188 245.929688 C 798.386719 245.539062 797.890625 245.179688 797.402344 244.808594 C 795.359375 247.609375 794.007812 245.03125 792.136719 244.464844 C 790.300781 243.90625 786.960938 245.96875 786.058594 245.078125 C 783 242.058594 781.175781 248.140625 778.890625 245.660156 C 776.511719 243.078125 773.644531 244.765625 771.042969 244.296875 C 769.140625 243.953125 767.355469 244.269531 766.226562 246.132812 C 764.503906 245.035156 762.894531 243.3125 761.039062 242.984375 C 757.800781 242.410156 754.40625 242.691406 751.078125 242.675781 C 751.042969 242.675781 750.914062 243.511719 750.980469 243.933594 C 751.09375 244.605469 751.332031 245.257812 751.515625 245.917969 C 750.507812 245.601562 748.683594 245.394531 748.625 244.953125 C 748.140625 241.34375 746.769531 241.703125 744.4375 243.546875 C 743.617188 244.1875 742.183594 244.050781 741.035156 244.269531 C 738.996094 246.890625 738.714844 247.09375 737.273438 245.039062 C 735.851562 243.019531 734.074219 248.082031 733.675781 244.832031 C 732.949219 238.90625 730.824219 246.121094 729.839844 244.269531 C 729.421875 244.789062 729.003906 245.300781 728.589844 245.816406 C 728.382812 245.300781 728.179688 244.789062 727.972656 244.269531 C 727.238281 245.316406 726.628906 247.058594 725.730469 247.21875 C 724.804688 247.390625 723.59375 246.027344 722.511719 245.335938 C 722.074219 245.0625 721.398438 244.441406 721.242188 244.554688 C 716.828125 247.722656 711.765625 245.179688 707.175781 246.210938 C 701.824219 247.410156 696.09375 248.234375 691.765625 251.78125 C 688.507812 254.453125 688.78125 252.914062 688.75 250.285156 C 688.742188 249.484375 689.046875 247.328125 687.214844 248.808594 C 685.972656 249.816406 685.753906 252.226562 684.464844 253.019531 C 683.164062 253.820312 681.429688 249.960938 679.484375 252.691406 C 679.359375 252.867188 679.464844 253.207031 680.046875 253.847656 C 680.132812 253.761719 680.214844 253.683594 680.296875 253.597656 C 680.589844 253.960938 680.886719 254.324219 680.320312 254.140625 C 680.960938 254.898438 680.65625 255.296875 680.585938 255.257812 C 680.183594 255.039062 679.832031 254.71875 679.464844 254.429688 C 679.542969 254.355469 679.621094 254.277344 679.699219 254.195312 C 677.621094 254.355469 676.152344 254.882812 674.722656 255.46875 C 671.578125 256.757812 666.949219 257.207031 665.609375 259.539062 C 662.652344 264.695312 659.988281 266.789062 654.492188 263.382812 C 654.023438 263.089844 651.265625 264.191406 652.285156 266.515625 C 652.492188 266.984375 652.835938 267.386719 653.117188 267.820312 C 650.355469 269.300781 647.71875 271.109375 644.808594 272.171875 C 641.222656 273.480469 638.253906 274.472656 641.96875 278.800781 C 642.179688 279.042969 641.042969 280.46875 642.152344 281.988281 C 642.699219 282.214844 642.949219 282.378906 642.328125 282.242188 C 643.789062 284.109375 643.554688 284.597656 643.320312 285.078125 C 642.308594 284.203125 641.296875 283.332031 640.285156 282.453125 C 640.308594 282.429688 640.335938 282.394531 640.363281 282.367188 C 638.832031 282.625 638.121094 283.175781 637.367188 283.261719 C 634.699219 283.566406 634.648438 283.429688 635.308594 284.980469 C 635.644531 285.777344 636.667969 286.75 636.453125 287.214844 C 635.84375 288.53125 634.757812 289.625 633.859375 290.808594 C 633.515625 289.777344 633.035156 288.773438 632.851562 287.71875 C 632.582031 286.136719 632.835938 284.347656 630.515625 286.582031 C 628.851562 288.183594 626.148438 288.882812 624.871094 290.675781 C 622.695312 293.734375 620.621094 292.515625 618.257812 291.503906 C 618.152344 291.457031 617.84375 291.914062 617.617188 292.125 C 613.789062 295.664062 612.316406 301.410156 606.761719 303.453125 C 606.015625 303.730469 606.070312 306.234375 605.789062 307.71875 C 605.675781 308.324219 605.777344 309.449219 605.578125 309.5 C 601.039062 310.589844 601.824219 315.5 599.375 318.183594 C 596.898438 320.890625 594.085938 324.558594 594.011719 327.863281 C 593.925781 331.734375 590.695312 332.78125 589.851562 335.613281 C 589.039062 338.351562 588.433594 341.769531 586.488281 343.398438 C 584.007812 345.472656 586.875 348.632812 583.851562 350.28125 C 579.285156 352.765625 578.433594 357.828125 576.902344 362.242188 C 575.671875 365.789062 575.695312 370.035156 573.6875 372.964844 C 571.976562 375.460938 571.320312 377.617188 571.199219 380.40625 C 571.089844 382.855469 569.304688 386.214844 570.34375 387.539062 C 573.125 391.09375 569.582031 393.113281 569.472656 395.796875 C 569.378906 398.136719 569.667969 400.621094 570.410156 402.835938 C 571.503906 406.109375 566.765625 406.070312 567.378906 409.34375 C 568.207031 413.761719 564.40625 417.839844 565.601562 422.5 C 559.628906 429.074219 568.007812 436.628906 564.203125 443.363281 C 564.179688 443.40625 564.640625 443.882812 564.871094 443.875 C 568.488281 443.796875 567.058594 444.867188 565.808594 446.703125 C 564.285156 448.941406 564.464844 454.992188 565.6875 457.488281 C 566.394531 458.921875 568.339844 460.179688 565.710938 461.570312 C 566.773438 463.292969 567.871094 464.988281 568.859375 466.753906 C 569.019531 467.039062 568.773438 467.671875 568.546875 468.039062 C 564.8125 474.054688 571.035156 479.566406 569.480469 485.507812 C 569.34375 486.023438 570.394531 487.066406 571.109375 487.539062 C 573.265625 488.980469 573.222656 491.046875 573.136719 493.257812 C 572.929688 498.675781 572.558594 504.15625 576.851562 508.484375 C 575.855469 511.867188 578.519531 513.394531 580.257812 515.476562 C 581.757812 517.265625 582.933594 519.324219 584.25 521.261719 C 580.820312 524.78125 585.300781 525.636719 586.566406 527.09375 C 588.945312 529.835938 591.359375 532.574219 591.644531 536.179688 C 591.851562 538.820312 593.488281 540.738281 595.058594 541.183594 C 602.609375 543.316406 601.207031 552.253906 606.703125 555.757812 C 606.578125 561.089844 610.75 564.628906 612.507812 569.203125 C 613.300781 571.269531 616.199219 572.820312 618.480469 573.847656 C 619.191406 574.167969 621.457031 572.273438 622.25 570.9375 C 623.882812 568.195312 625.347656 570.175781 627.269531 569.984375 C 627.257812 569.96875 627.242188 569.953125 627.226562 569.9375 C 627.589844 569.640625 627.949219 569.347656 627.769531 569.914062 C 628.527344 569.269531 628.921875 569.578125 628.886719 569.644531 C 628.664062 570.050781 628.34375 570.398438 628.058594 570.769531 C 627.902344 570.613281 627.75 570.460938 627.59375 570.304688 C 627.226562 571.136719 627.15625 571.457031 627.238281 571.699219 C 629.871094 579.523438 634.953125 584.457031 643.671875 588.265625 C 645.539062 589.082031 647.664062 589.726562 648.496094 592.601562 C 648.929688 594.109375 652.507812 593.335938 654.753906 595.09375 C 659.46875 598.78125 664.851562 601.800781 670.605469 603.894531 C 674.386719 605.269531 678.441406 606.195312 681.859375 608.191406 C 687.582031 611.539062 693.375 614.03125 700.121094 613.679688 C 701.554688 616.5625 704.183594 613.761719 706.402344 615.132812 C 711.371094 618.222656 717.035156 618.523438 722.664062 616.269531 C 723.03125 616.117188 723.863281 616.621094 724.203125 617.042969 C 724.695312 617.644531 724.933594 618.453125 725.277344 619.171875 C 727.929688 616.027344 730.335938 620.847656 733.144531 619.363281 C 735.140625 618.304688 737.558594 617.546875 739.785156 617.546875 C 742.015625 617.546875 744.234375 619.101562 746.476562 619.140625 C 748.378906 619.175781 750.308594 618.035156 752.226562 617.410156 C 752.644531 616.894531 753.0625 616.378906 753.480469 615.863281 C 753.683594 616.378906 753.886719 616.894531 754.09375 617.410156 C 754.714844 617.410156 755.335938 617.410156 755.957031 617.410156 C 756.527344 616.347656 754.65625 614.246094 757.277344 614.117188 C 757.917969 614.085938 758.816406 615.175781 759.21875 614.976562 C 762.648438 613.289062 768.082031 612.292969 772.203125 611.71875 C 778.574219 610.832031 784.894531 609.472656 791.167969 608.023438 C 794.511719 607.246094 796.394531 603.464844 800.863281 604.03125 C 803.09375 604.316406 805.835938 601.351562 808.1875 599.644531 C 811.605469 597.175781 814.167969 602.386719 817.289062 600.582031 C 821.382812 598.210938 825.65625 595.976562 828.488281 592.050781 C 828.644531 591.835938 826.050781 590.507812 829.359375 589.1875 C 836.054688 586.511719 842.773438 583.878906 849.722656 582.171875 C 852.582031 581.46875 853.058594 580.714844 853.082031 578.195312 C 853.097656 576.894531 854.515625 575.660156 854.785156 574.292969 C 855.582031 570.25 857.074219 575.789062 858.347656 573.914062 C 860.316406 571.015625 865.109375 570.386719 864.859375 565.515625 C 864.796875 564.273438 865.847656 562.765625 866.773438 561.71875 C 868.828125 559.394531 872.835938 557.355469 872.929688 555.070312 C 873.082031 551.386719 879.453125 552.761719 877.230469 548.476562 C 879.367188 546.617188 881.554688 544.816406 883.621094 542.878906 C 884.710938 541.855469 886.566406 540.414062 886.390625 539.480469 C 885.582031 535.136719 892.238281 534.566406 890.777344 530.167969 C 898.261719 517.238281 899.640625 512.132812 901.683594 499.207031 C 902.382812 494.792969 902.699219 490.277344 903.714844 486.050781 C 904.230469 483.875 906.175781 480.71875 905.035156 479.441406 C 900.03125 473.832031 908.328125 467.300781 903.347656 462.019531 C 907.359375 458.804688 903.878906 455.578125 903.328125 452.378906 C 903.03125 450.667969 902.199219 448.996094 902.179688 447.300781 C 902.164062 445.785156 903.777344 443.6875 903.203125 442.835938 C 900.785156 439.242188 901.980469 435.230469 901.148438 431.511719 C 901.078125 431.191406 900.148438 431.0625 899.617188 431.257812 C 899.25 431.960938 898.878906 432.246094 898.511719 432.535156 C 898.398438 432.144531 898.089844 431.492188 898.203125 431.40625 C 898.59375 431.109375 899.132812 431.011719 899.613281 430.839844 C 899.605469 430.054688 899.589844 429.503906 899.625 428.976562 C 899.945312 423.972656 899.898438 419.246094 895.085938 415.847656 C 893.742188 414.898438 892.804688 412.554688 892.707031 410.796875 C 892.21875 401.996094 890.96875 397.414062 886.105469 394.253906 C 883.445312 392.527344 881.03125 391.988281 884.546875 388.871094 C 884.871094 388.582031 884.578125 386.871094 884.066406 386.480469 C 880.171875 383.488281 878.777344 376.5 871.644531 378.558594 C 871.210938 378.679688 870.410156 378.3125 870.105469 377.921875 C 869.789062 377.511719 869.605469 376.636719 869.839844 376.257812 C 870.078125 375.863281 870.882812 375.703125 871.457031 375.65625 C 872.105469 375.601562 872.773438 375.785156 873.433594 375.867188 C 873.453125 375.253906 873.722656 374.496094 873.457031 374.054688 C 871.75 371.183594 869.03125 369.777344 864.800781 371.847656 C 861.898438 373.261719 861.402344 371.304688 860.867188 370.386719 C 860.242188 369.3125 860.621094 367.523438 860.859375 366.09375 C 861.339844 363.195312 861.421875 363.210938 858.507812 362.804688 C 857.90625 362.71875 856.777344 362.5625 856.78125 362.496094 C 857.066406 358.105469 852.835938 358.433594 850.625 356.859375 C 848.984375 355.695312 847.113281 355.578125 847.183594 352.683594 C 847.21875 351.089844 846.644531 346.855469 842.847656 350.359375 C 842.4375 350.738281 841.074219 350.492188 840.410156 350.101562 C 838.390625 348.914062 835.417969 347.878906 834.808594 346.105469 C 833.875 343.375 833.25 343.191406 831.261719 344.761719 C 829.941406 342.820312 828.925781 340.539062 827.226562 339.023438 C 825.082031 337.109375 824.902344 332.476562 820.25 333.671875 C 819.789062 333.789062 818.433594 332.496094 818.382812 331.789062 C 818.097656 327.855469 814.835938 328.863281 812.6875 327.761719 C 811.03125 326.910156 810.339844 326.589844 809.289062 328.070312 C 808.632812 326.890625 808.253906 325.25 807.25 324.648438 C 805.578125 323.644531 803.089844 322.339844 801.703125 322.929688 C 799.75 323.761719 800.105469 324.53125 798.527344 322.050781 C 796.542969 318.933594 792.050781 317.410156 788.636719 315.199219 C 785.941406 318.820312 784.132812 316.300781 782.121094 314.347656 C 781.546875 313.785156 780.589844 313.410156 779.773438 313.335938 C 772.15625 312.65625 764.539062 311.976562 756.910156 311.472656 C 753.507812 311.25 750.050781 311.195312 746.660156 311.507812 C 743.464844 311.800781 740.324219 313.199219 737.167969 313.167969 C 733.300781 313.132812 730.203125 314.5 727.414062 316.738281 C 724.570312 319.023438 721.695312 320.757812 717.875 320.820312 C 714.4375 320.875 711.828125 322.898438 709.46875 325.257812 C 705.617188 329.105469 702.046875 333.292969 697.0625 335.820312 C 694.492188 337.125 691.671875 338.117188 689.425781 339.847656 C 684.882812 343.34375 680.683594 347.285156 676.269531 350.957031 C 675.414062 351.667969 674.246094 352.339844 673.179688 352.414062 C 669.828125 352.644531 668.480469 354.1875 668.125 357.585938 C 667.902344 359.695312 666.722656 362.332031 665.089844 363.457031 C 663.839844 364.316406 662.078125 364.480469 662.742188 366.289062 C 664.128906 370.03125 660.160156 370.46875 659.859375 373.113281 C 660.117188 373.433594 660.304688 373.710938 659.800781 373.546875 C 660.441406 374.304688 660.132812 374.703125 660.066406 374.664062 C 659.660156 374.445312 659.308594 374.125 658.941406 373.835938 C 658.992188 373.789062 659.039062 373.738281 659.085938 373.691406 C 655.277344 374.425781 655.214844 377.890625 654.316406 380.640625 C 654.542969 380.929688 654.671875 381.160156 654.203125 381.007812 C 654.84375 381.765625 654.535156 382.164062 654.46875 382.128906 C 654.0625 381.90625 653.710938 381.585938 653.347656 381.300781 C 653.417969 381.226562 653.492188 381.152344 653.5625 381.078125 C 649.703125 381.441406 650.023438 385.214844 647.871094 386.875 C 651.082031 389.667969 647.570312 390.738281 646.324219 392.03125 C 643.9375 394.511719 642.675781 396.667969 645.453125 399.769531 C 646.453125 400.886719 646.363281 402.59375 644.03125 402.914062 C 643.355469 403.007812 642.621094 403.703125 642.179688 404.316406 C 641.019531 405.929688 645.085938 406.566406 642.984375 408.660156 C 641.804688 409.835938 641.472656 411.945312 640.21875 412.960938 C 638.058594 414.710938 638.425781 416.871094 639.1875 419.734375 C 639.21875 419.707031 639.257812 419.675781 639.289062 419.648438 C 639.6875 420.320312 640.085938 420.996094 639.421875 420.601562 C 640.027344 422.273438 639.769531 422.746094 639.511719 423.21875 C 639.203125 422.457031 638.875 421.703125 638.617188 420.929688 C 634.589844 422.570312 634.230469 425.542969 636.515625 429.105469 C 636.753906 429.472656 636.640625 430.109375 637.199219 431.03125 C 637.261719 430.964844 637.324219 430.902344 637.386719 430.839844 C 637.679688 431.203125 637.972656 431.5625 637.410156 431.382812 C 638.050781 432.144531 637.746094 432.539062 637.675781 432.5 C 637.398438 432.351562 637.148438 432.152344 636.902344 431.953125 C 634.320312 434.832031 634.460938 435.945312 634.371094 441.050781 C 634.347656 442.34375 633.515625 443.375 634.304688 445.105469 C 634.824219 446.246094 632.53125 449.40625 632.960938 449.730469 C 636.023438 452.039062 632.335938 453.855469 632.820312 455.828125 C 632.882812 456.078125 632.96875 456.328125 633.039062 456.582031 C 632.914062 456.550781 632.804688 456.523438 632.671875 456.488281 C 632.953125 456.34375 632.164062 456.585938 632.179688 456.773438 C 632.253906 457.773438 631.988281 458.851562 632.140625 459.839844 C 632.132812 459.835938 632.128906 459.828125 632.121094 459.824219 C 632.121094 460.441406 632.121094 461.054688 632.121094 461.671875 C 632.386719 461.566406 632.652344 461.460938 632.917969 461.355469 C 633.0625 461.496094 633.207031 461.632812 633.40625 461.761719 C 633.8125 462.027344 634.164062 462.382812 634.503906 462.757812 C 634.511719 462.988281 634.5625 463.214844 634.546875 463.441406 C 634.269531 467.785156 635.015625 471.980469 636.722656 475.660156 C 638.660156 479.84375 637.808594 485.140625 642.101562 488.410156 C 644.050781 489.898438 646.023438 491.863281 646.957031 494.050781 C 648.21875 496.996094 647.78125 497.1875 651.554688 499.878906 C 652.191406 500.335938 653.347656 501.089844 653.253906 501.402344 C 652.230469 504.84375 654.808594 505.308594 656.957031 506.324219 C 660.171875 507.847656 662.589844 509.992188 664.785156 513.089844 C 666.957031 516.148438 670.953125 518.191406 674.535156 519.835938 C 675.984375 520.5 678.679688 516.238281 679.863281 521.410156 C 680.390625 523.71875 682.636719 521.210938 684.183594 520.59375 C 685.0625 520.242188 686.683594 521.691406 687.953125 522.359375 C 689.453125 523.148438 688.425781 527.222656 690.835938 525.792969 C 693.96875 523.9375 693.886719 525.941406 695.183594 527.5625 C 697.824219 530.867188 701.085938 533.433594 705.742188 533.523438 C 707.109375 533.550781 708.90625 534.019531 709.730469 534.960938 C 712.140625 537.710938 714.3125 536.523438 714.730469 534.101562 C 715.425781 530.105469 716.578125 532.15625 717.707031 533.492188 C 720.902344 537.289062 724.441406 538.828125 729.628906 537.390625 C 732.199219 536.675781 735.546875 536.195312 738.300781 538.832031 C 739.28125 539.769531 742.652344 539.828125 743.589844 538.914062 C 747.777344 534.835938 751.371094 538.40625 755.175781 539.214844 C 756.070312 539.402344 757.390625 540.234375 757.742188 539.914062 C 760.699219 537.234375 763.863281 538.582031 767.082031 538.957031 C 768.398438 539.109375 769.824219 538.164062 771.21875 537.800781 C 774.007812 537.0625 777.058594 536.066406 779.292969 534.863281 C 786.394531 531.035156 796.417969 531.714844 800.101562 522.273438 C 800.144531 522.167969 800.78125 522.386719 800.988281 522.242188 C 804.113281 520.007812 807.101562 517.558594 810.355469 515.535156 C 812.746094 514.054688 809.777344 512.253906 810.636719 511.648438 C 811.96875 510.714844 814.011719 510.851562 815.5625 510.125 C 816.621094 509.628906 817.40625 508.484375 818.222656 507.550781 C 819.890625 505.640625 821.492188 503.679688 823.125 501.738281 C 823.34375 500.585938 823.457031 498.464844 823.796875 498.429688 C 828.507812 497.917969 827.085938 495.042969 826.039062 492.601562 C 825.015625 490.214844 828.148438 487.589844 825.425781 485.441406 C 828.4375 487.101562 824.628906 478.542969 829.378906 482.804688 C 830.257812 481.488281 831.53125 480.269531 831.886719 478.824219 C 832.160156 477.699219 831.203125 476.3125 830.945312 475.007812 C 830.785156 474.199219 830.914062 473.332031 830.914062 472.492188 C 831.574219 472.746094 832.222656 473.183594 832.894531 473.21875 C 833.945312 473.265625 835.402344 473.445312 836.007812 472.863281 C 839.257812 469.742188 842.191406 467.175781 840.628906 461.195312 C 839.199219 455.710938 839.96875 451.367188 837.3125 447.96875 C 836.21875 446.570312 836.523438 445.992188 837.621094 445.28125 C 842.011719 442.453125 837.820312 442.351562 836.40625 441.308594 C 834.789062 440.113281 833.734375 438.878906 836.121094 437.269531 C 836.359375 437.109375 835.988281 435.371094 835.445312 434.933594 C 834.957031 434.539062 833.578125 434.597656 833.046875 435.027344 C 831.824219 436.015625 830.75 437.273438 829.242188 435.847656 C 828.996094 435.617188 829.886719 434.183594 830.25 433.304688 C 829.191406 432.863281 827.457031 432.667969 827.195312 431.941406 C 826.40625 429.765625 826.136719 427.390625 825.769531 425.074219 C 825.460938 423.097656 822.9375 422.003906 824.234375 419.160156 C 824.96875 417.542969 823.683594 414.917969 823.070312 412.816406 C 822.796875 411.894531 822.109375 410.75 821.304688 410.386719 C 817.175781 408.511719 816.941406 408.496094 818.609375 404.707031 C 819.308594 403.125 820.046875 401.671875 818.203125 401.074219 C 813.882812 399.679688 814.832031 394.789062 812.039062 392.488281 C 815.480469 390.027344 812.011719 388.761719 810.84375 388.050781 C 808.175781 386.421875 804.867188 385.8125 802.277344 384.097656 C 799.511719 382.257812 797.515625 378.203125 794.738281 377.730469 C 791.871094 377.242188 789.035156 377.277344 787.070312 375.085938 C 784.570312 372.296875 781.75 372.636719 778.800781 373.566406 C 777.894531 373.851562 776.964844 375.878906 776.546875 373.449219 C 776.085938 370.785156 775.144531 370.605469 772.933594 371.792969 C 771.128906 372.765625 762.628906 373.289062 760.898438 373.34375 C 759.386719 373.386719 757.296875 374.804688 756.511719 374.21875 C 754.492188 372.699219 752.625 372.414062 750.730469 373.671875 C 749.207031 374.679688 748.101562 376.296875 746.726562 377.550781 C 744.238281 379.820312 741.472656 380.011719 738.445312 378.632812 C 737.429688 378.175781 736.824219 375.582031 734.992188 377.921875 C 734.644531 378.363281 732.445312 377.199219 731.902344 377.679688 C 730.898438 378.570312 730.609375 380.210938 729.792969 381.382812 C 729.09375 382.386719 727.453125 384.039062 727.285156 383.917969 C 723.484375 381.210938 723.308594 384.5 722.335938 386.6875 C 721.988281 387.480469 720.953125 387.988281 720.648438 388.78125 C 719.316406 392.269531 715.75 393.421875 713.4375 395.871094 C 713.007812 396.332031 712.152344 396.390625 711.492188 396.636719 C 711.503906 395.796875 711.339844 394.902344 711.574219 394.128906 C 711.832031 393.292969 714.003906 392.652344 711.824219 391.742188 C 711.226562 391.492188 709.785156 391.984375 709.488281 392.542969 C 708.410156 394.558594 708.117188 397.136719 706.699219 398.800781 C 698.878906 407.976562 698.78125 407.902344 698.132812 417.484375 C 697.949219 420.21875 697.082031 419.511719 695.578125 418.296875 C 695.363281 418.125 692.730469 419.824219 692.660156 420.765625 C 692.175781 427.359375 689.132812 433.8125 690.785156 440.453125 C 691.730469 444.25 693.925781 447.734375 695.558594 451.363281 C 701.65625 451.507812 694.515625 454.132812 696.257812 455.097656 C 696.878906 455.898438 698.109375 456.78125 698.015625 457.488281 C 697.605469 460.578125 697.457031 460.519531 699.941406 459.839844 C 700.53125 459.675781 701.214844 459.828125 701.851562 459.839844 C 701.835938 460.453125 702.003906 461.167969 701.742188 461.648438 C 701.507812 462.085938 700.757812 462.214844 700.304688 462.566406 C 697.402344 464.8125 697.011719 466.421875 699.941406 467.933594 C 701.777344 468.882812 701.5625 470.042969 702.128906 471.21875 C 703.070312 473.175781 707.925781 479.242188 709.925781 480.871094 C 712.929688 483.324219 715.976562 485.730469 719.054688 488.09375 C 719.296875 488.28125 720.136719 488.132812 720.304688 487.882812 C 720.855469 487.039062 721.222656 486.082031 721.664062 485.167969 C 722.101562 486.226562 722.507812 488.179688 722.984375 488.195312 C 725.125 488.273438 727.28125 492.257812 729.515625 488.160156 C 730.675781 486.039062 732.933594 486.867188 735.566406 486.089844 C 735.523438 486.039062 735.476562 485.984375 735.433594 485.945312 C 736.109375 485.542969 736.785156 485.144531 736.390625 485.8125 C 738.0625 485.203125 738.535156 485.460938 739.007812 485.71875 C 738.105469 486.082031 737.222656 486.507812 736.289062 486.761719 C 736.242188 486.777344 736.183594 486.75 736.113281 486.695312 C 735.46875 488.65625 734.835938 490.304688 736.910156 490.453125 C 738.386719 490.558594 740.808594 491.683594 741.050781 488.546875 C 741.175781 486.945312 742.363281 486.140625 742.75 488.0625 C 743.308594 490.816406 742.273438 494.476562 746.492188 489.957031 C 747.476562 488.898438 749.761719 488.910156 751.484375 488.707031 C 757.421875 488.011719 763.375 487.453125 769.316406 486.78125 C 769.84375 486.722656 770.730469 486.261719 770.753906 485.9375 C 770.90625 483.722656 771.046875 482.140625 773.542969 484.621094 C 773.9375 485.007812 776.070312 484.480469 776.523438 483.796875 C 777.449219 482.40625 777.492188 480.425781 778.429688 479.050781 C 779.28125 477.800781 782.007812 476.847656 781.886719 476.082031 C 781.164062 471.492188 785.199219 466.574219 780.9375 462.207031 C 780.796875 462.0625 780.722656 461.773438 780.6875 461.441406 C 780.75 461.480469 780.8125 461.53125 780.878906 461.570312 C 780.945312 461.605469 781.246094 461.214844 781.460938 461 C 781.214844 460.691406 780.964844 460.386719 780.714844 460.078125 C 780.769531 459.601562 780.847656 459.234375 780.882812 459.230469 C 785.601562 458.789062 784.371094 455.722656 783.074219 453.46875 C 781.851562 451.34375 781.574219 449.730469 782.890625 447.671875 C 783.355469 446.945312 781.613281 442.210938 780.9375 442.085938 C 779.746094 441.863281 778.5 441.945312 777.28125 441.902344 C 777.425781 440.804688 777.574219 439.707031 777.71875 438.609375 C 773.960938 438.933594 774.953125 434.554688 772.582031 433.441406 C 769.980469 432.21875 767.460938 430.824219 764.898438 429.519531 C 757.777344 425.898438 757.789062 425.914062 751.492188 432.441406 C 751.171875 432.773438 750.140625 432.410156 749.796875 432.742188 C 747.792969 434.695312 747.996094 438.214844 750.175781 440.15625 C 750.707031 440.632812 751.378906 440.953125 751.984375 441.34375 C 748.011719 443.792969 751.59375 446.4375 752.417969 448.183594 C 754.476562 452.546875 755.214844 456.445312 753.269531 460.050781 C 752.871094 460.535156 752.476562 461.027344 752.085938 461.511719 C 752.148438 461.511719 752.214844 461.511719 752.277344 461.511719 C 751.726562 462.230469 751.09375 462.9375 750.292969 463.632812 C 749.464844 464.351562 749.09375 465.59375 748.492188 466.582031 C 746.429688 469.980469 747.246094 466.324219 746.582031 465.925781 C 744.488281 464.660156 742.183594 463.746094 739.960938 462.699219 C 737.457031 466.167969 736.867188 461.722656 735.347656 461.636719 C 733.390625 461.523438 731.261719 462.5 730.089844 460.007812 C 728.753906 457.152344 727.386719 454.304688 726.121094 451.417969 C 724.972656 448.792969 722.386719 445.414062 723.199219 443.609375 C 724.773438 440.101562 722.394531 437.8125 722.359375 434.972656 C 722.273438 428.496094 723.359375 422.5 728.648438 418.019531 C 729.589844 417.21875 730.976562 416.398438 731.191406 415.378906 C 732.277344 410.308594 736.621094 409.878906 740.335938 408.425781 C 742.613281 407.539062 745.46875 407.53125 746.214844 404.722656 C 745.511719 404.351562 745.222656 403.984375 744.9375 403.617188 C 745.328125 403.5 745.976562 403.191406 746.066406 403.308594 C 746.296875 403.613281 746.410156 404.011719 746.527344 404.402344 C 751.417969 399.238281 758.660156 402.46875 763.792969 399.179688 C 764.007812 399.039062 764.914062 399.597656 765.214844 400.03125 C 767 402.589844 769.492188 402.921875 772.398438 402.933594 C 775.847656 402.945312 779.59375 403.035156 780.40625 407.714844 C 781.0625 407.550781 781.710938 407.367188 782.371094 407.230469 C 783.425781 407.019531 784.503906 406.800781 785.988281 405.933594 C 785.929688 405.875 785.871094 405.8125 785.808594 405.753906 C 786.171875 405.460938 786.535156 405.167969 786.351562 405.730469 C 787.113281 405.089844 787.507812 405.394531 787.46875 405.464844 C 787.25 405.867188 786.929688 406.21875 786.640625 406.585938 C 786.496094 406.441406 786.351562 406.296875 786.207031 406.15625 C 785.585938 408.019531 785.476562 409.839844 785.140625 409.882812 C 782.078125 410.292969 783.039062 411.039062 783.652344 413.472656 C 784.542969 417.011719 787.046875 417.25 789.28125 418.457031 C 786.933594 420.914062 787.734375 423.988281 787.734375 426.867188 C 787.730469 427.640625 788.398438 428.429688 788.824219 429.175781 C 790.097656 431.429688 789.355469 434.296875 791.972656 436.339844 C 794.34375 438.191406 789.773438 440.707031 791.386719 443.304688 C 792.136719 444.511719 792.710938 445.84375 793.257812 447.167969 C 794.386719 449.890625 795.566406 452.507812 795.25 455.691406 C 795.027344 457.96875 796.152344 460.351562 796.105469 462.675781 C 796.054688 465.066406 796.566406 467.800781 796.046875 469.730469 C 794.488281 475.488281 792.417969 481.152344 789.867188 486.660156 C 788.785156 488.996094 784.933594 487.582031 785.660156 491.335938 C 786.277344 494.53125 783.984375 495.875 780.660156 496.277344 C 777.945312 496.609375 775.378906 498.167969 772.75 499.179688 C 773.089844 504.359375 766.878906 499.472656 766.105469 503.5625 C 765.734375 505.542969 763.378906 505.554688 761.4375 505.5 C 757.726562 505.394531 754 505.359375 750.292969 505.515625 C 748.480469 505.59375 745.992188 507.101562 745.011719 506.367188 C 741.027344 503.375 741.429688 507.207031 740.410156 508.890625 C 738 507.175781 736.515625 508.277344 735.445312 510.539062 C 735.078125 511.3125 734.8125 512.128906 734.5 512.929688 C 734.191406 512.128906 733.53125 511.28125 733.628906 510.535156 C 734.085938 507.179688 732.042969 507.019531 729.71875 507.386719 C 728.929688 507.511719 728.289062 508.410156 727.488281 508.695312 C 726.714844 508.972656 725.824219 508.917969 724.988281 509.011719 C 725.355469 508.136719 725.796875 507.28125 726.042969 506.371094 C 726.121094 506.085938 719.636719 503.574219 718.730469 503.621094 C 716.667969 503.722656 714.984375 499.457031 712.628906 503.089844 C 709.140625 501.882812 706.925781 497.179688 702.210938 499.28125 C 702.203125 499.285156 702.015625 498.769531 701.84375 498.542969 C 701.242188 497.730469 700.609375 496.9375 699.988281 496.140625 C 699.710938 494.8125 700.851562 493 698.53125 492.386719 C 696.589844 491.875 694.546875 491.441406 692.835938 490.464844 C 691.109375 489.476562 690.597656 494.0625 688.769531 491.070312 C 687.703125 489.324219 686.410156 487.710938 685.21875 486.035156 C 684.03125 484.367188 683.367188 485.761719 682.589844 486.484375 C 681.933594 485.425781 681.5 484.03125 680.554688 483.410156 C 679.773438 482.894531 678.761719 486.023438 677.335938 483.75 C 676.925781 483.09375 676.089844 481.914062 676.160156 481.855469 C 679.402344 479.246094 676.703125 477.789062 675.191406 475.949219 C 673.519531 473.914062 670.390625 471.046875 670.902344 469.640625 C 672.167969 466.175781 668.859375 465.464844 668.554688 463.574219 C 667.457031 456.792969 666.957031 449.90625 666.503906 443.039062 C 666.421875 441.800781 668.324219 439.492188 668.117188 439.34375 C 665.765625 437.660156 667.792969 435.113281 666.726562 432.964844 C 665.894531 431.300781 667.242188 427.449219 668.878906 425.886719 C 671.878906 423.019531 668.3125 421.679688 667.855469 419.648438 C 667.152344 419.277344 666.863281 418.910156 666.578125 418.542969 C 666.96875 418.425781 667.617188 418.117188 667.707031 418.234375 C 667.914062 418.503906 668.023438 418.851562 668.128906 419.195312 C 672.308594 412.691406 673.007812 407.738281 671.019531 401 C 670.996094 400.917969 670.441406 400.988281 670.136719 401.40625 C 669.765625 402.109375 669.398438 402.394531 669.03125 402.683594 C 668.914062 402.289062 668.605469 401.640625 668.722656 401.554688 C 669.0625 401.292969 669.519531 401.183594 669.953125 401.046875 C 669.320312 399.757812 668.28125 398.402344 668.476562 398.183594 C 672.328125 393.949219 676.8125 390.28125 679.597656 385.101562 C 679.902344 384.539062 681.148438 384.246094 681.957031 384.242188 C 684.78125 384.234375 685.925781 383.738281 684.371094 380.53125 C 683.246094 378.21875 684.355469 375.28125 687.050781 375.027344 C 691.046875 374.65625 692.777344 372.238281 693.972656 369.273438 C 693.269531 368.902344 692.984375 368.535156 692.695312 368.167969 C 693.089844 368.050781 693.738281 367.742188 693.824219 367.859375 C 694.082031 368.195312 694.191406 368.640625 694.324219 369.066406 C 698.792969 366.503906 702.925781 364 706.941406 361.335938 C 709.082031 359.914062 712.167969 358.546875 712.816406 356.515625 C 714.304688 351.859375 717.726562 355.722656 719.6875 354.230469 C 719.933594 354.042969 720.335938 353.777344 720.320312 353.578125 C 719.980469 349.238281 723.636719 351.34375 725.375 350.355469 C 727.40625 349.199219 729.367188 347.871094 731.179688 346.394531 C 732.183594 345.574219 732.804688 345.96875 733.859375 346.003906 C 737.828125 346.136719 741.894531 345.671875 745.796875 344.835938 C 754.257812 343.027344 754.21875 342.902344 762.960938 345 C 765.414062 345.589844 768.523438 347.148438 770.285156 346.242188 C 777.933594 342.292969 784.921875 348.132812 792.363281 347.136719 C 794.710938 346.824219 797.488281 349.453125 800.003906 350.851562 C 801.785156 351.84375 803.464844 353.019531 805.175781 354.128906 C 806.121094 354.742188 809.925781 353.707031 806.71875 356.761719 C 808.199219 357.820312 809.570312 359.109375 811.191406 359.863281 C 812.214844 360.335938 813.609375 360.015625 814.835938 360.054688 C 814.488281 361.234375 813.929688 362.410156 813.882812 363.601562 C 813.859375 364.230469 814.597656 365.25 815.21875 365.476562 C 817.386719 366.265625 819.660156 366.757812 821.878906 367.417969 C 822.933594 367.738281 824.867188 368.234375 824.847656 368.566406 C 824.679688 371.664062 826.789062 371.253906 828.558594 371.109375 C 831.695312 370.847656 832.898438 370.945312 830.765625 374.582031 C 829.3125 377.0625 833.027344 376.410156 834.203125 377.445312 C 836.855469 379.773438 835.75 376.808594 836.257812 375.921875 C 836.410156 375.65625 837.964844 375.835938 837.96875 375.890625 C 838.070312 377.121094 837.960938 378.375 838.078125 379.609375 C 838.160156 380.457031 838.523438 381.277344 838.761719 382.113281 C 839.199219 381.199219 839.570312 380.234375 840.144531 379.417969 C 840.246094 379.273438 841.355469 379.585938 841.75 379.957031 C 842.378906 380.550781 842.894531 381.25 843.761719 381.410156 C 844.078125 381.15625 844.351562 380.972656 844.1875 381.476562 C 844.949219 380.835938 845.34375 381.140625 845.304688 381.207031 C 845.117188 381.5625 844.847656 381.871094 844.59375 382.1875 C 845.359375 383.410156 846.550781 384.074219 847.160156 385.074219 C 847.96875 386.398438 847.984375 388.203125 848.398438 389.785156 C 848.414062 389.847656 848.832031 389.777344 849.484375 389.203125 C 849.402344 389.125 849.324219 389.042969 849.242188 388.964844 C 849.605469 388.667969 849.96875 388.375 849.785156 388.9375 C 850.546875 388.296875 850.941406 388.601562 850.902344 388.671875 C 850.683594 389.078125 850.363281 389.425781 850.074219 389.792969 C 849.980469 389.699219 849.882812 389.601562 849.78125 389.503906 C 849.75 391.398438 850.015625 392.726562 850.582031 393.886719 C 852.597656 398.027344 856.828125 400.863281 857.230469 406.046875 C 857.386719 408.039062 860.058594 410.289062 859.582031 411.78125 C 858.699219 414.539062 860.53125 415.863281 861.335938 417.628906 C 862.296875 419.722656 863.949219 421.496094 865.140625 423.5 C 865.40625 423.945312 864.964844 424.78125 864.914062 425.445312 C 864.828125 426.5 864.324219 428.054688 864.824219 428.535156 C 867.757812 431.347656 869.605469 434.074219 866.078125 437.734375 C 865.820312 438.003906 865.964844 439.191406 866.292969 439.410156 C 869.238281 441.402344 866.617188 445.074219 868.328125 446.90625 C 871.007812 449.78125 867.847656 452.886719 868.734375 454.503906 C 869.878906 456.589844 869.746094 458.515625 869.675781 460.429688 C 869.445312 460.304688 869.207031 460.1875 868.960938 460.132812 C 868.808594 460.097656 868.558594 460.503906 868.355469 460.710938 C 868.753906 460.929688 869.15625 461.152344 869.542969 461.367188 C 869.585938 461.324219 869.617188 461.292969 869.65625 461.25 C 869.652344 461.664062 869.65625 462.078125 869.691406 462.492188 C 869.949219 465.726562 870.339844 469.148438 867.902344 471.9375 C 870.464844 475.140625 870.285156 478.34375 867.902344 481.546875 C 870.742188 484.128906 867.164062 486.671875 867.863281 489.304688 C 868.8125 492.871094 866.082031 495.339844 864.886719 498.273438 C 864.449219 499.332031 864.074219 500.59375 864.230469 501.683594 C 864.730469 505.1875 862.804688 507.894531 861.59375 510.851562 C 859.964844 514.820312 856.644531 518.03125 856.5625 522.765625 C 856.546875 523.792969 854.855469 525.082031 853.65625 525.671875 C 853.121094 525.929688 850.40625 523.042969 851.421875 525.902344 C 852.863281 529.953125 845.792969 530.320312 848.898438 534.066406 C 849.007812 534.199219 849.003906 534.625 848.902344 534.695312 C 846.730469 536.167969 844.613281 537.746094 842.328125 539.019531 C 838.820312 540.976562 834.773438 542.214844 831.75 544.71875 C 829.464844 546.609375 827.363281 546.414062 824.988281 546.515625 C 823.925781 547.628906 822.015625 549.785156 821.925781 549.710938 C 818.421875 546.84375 816.46875 547.707031 814.839844 551.800781 C 814.289062 553.1875 810.875 550.757812 810.894531 553.980469 L 810.894531 553.976562 C 811.191406 554.339844 811.484375 554.703125 810.921875 554.519531 C 811.558594 555.277344 811.253906 555.675781 811.1875 555.636719 C 810.78125 555.417969 810.429688 555.097656 810.066406 554.808594 C 810.144531 554.726562 810.230469 554.644531 810.3125 554.5625 C 808.347656 554.976562 803.242188 557.492188 802.9375 557.730469 C 801.183594 559.125 798.207031 558.546875 797.914062 561.542969 C 798.175781 561.867188 798.371094 562.148438 797.859375 561.984375 C 798.503906 562.742188 798.195312 563.136719 798.128906 563.101562 C 797.722656 562.878906 797.375 562.558594 797.003906 562.273438 C 797.136719 562.136719 797.273438 562.003906 797.40625 561.867188 C 793.542969 560.714844 792.574219 564.230469 790.246094 564.910156 C 783.082031 567.007812 783.460938 567.527344 779.105469 570.457031 C 777.484375 571.546875 777.058594 572.828125 775.964844 573.738281 C 775.28125 574.308594 773.078125 572.726562 771.550781 572.722656 C 769.769531 572.714844 766.753906 571.332031 767.152344 575.296875 C 766.53125 575.339844 765.910156 575.375 765.285156 575.414062 C 765.46875 572.433594 764.710938 572.273438 762.5625 574.253906 C 761.875 574.882812 759.753906 574.984375 759.0625 574.40625 C 756.285156 572.074219 754.320312 572.527344 751.09375 574.25 C 747.335938 576.257812 737.085938 573.761719 733.457031 571.671875 C 732.605469 571.183594 730.875 570.855469 730.394531 571.320312 C 728.523438 573.140625 728.636719 572.238281 727.789062 570.4375 C 727.09375 568.949219 723.464844 567.195312 723.375 567.3125 C 720.917969 570.449219 718.460938 567.125 717.539062 566.464844 C 714.132812 564.03125 714.984375 566.664062 714.929688 568.210938 C 714.726562 574.304688 712.144531 567.15625 711.183594 569.320312 C 710.8125 570.023438 710.445312 570.308594 710.078125 570.597656 C 709.960938 570.203125 709.652344 569.554688 709.769531 569.46875 C 710.140625 569.183594 710.660156 569.082031 711.128906 568.921875 C 710.828125 566.765625 712.554688 564.363281 709.699219 563.335938 C 707.53125 562.558594 705.058594 561.175781 703.074219 561.628906 C 699.179688 562.515625 700.796875 558.175781 698.253906 557.5625 C 693.1875 556.335938 688.808594 553.414062 684.351562 550.648438 C 679.484375 547.636719 672.972656 547.691406 669.003906 542.78125 C 663.84375 543.566406 661.847656 537.53125 657.339844 537.292969 C 654.960938 537.167969 653.339844 536.457031 651.820312 534.761719 C 645.714844 527.953125 639.542969 521.207031 633.398438 514.4375 C 633.195312 514.214844 632.847656 513.972656 632.847656 513.746094 C 632.875 510.179688 630.066406 509.597656 627.589844 508.605469 C 626.59375 508.203125 625.683594 505.84375 625.3125 503.808594 C 625.175781 503.066406 624.40625 501.785156 624.09375 501.835938 C 620.554688 502.398438 621.957031 498.789062 620.476562 497.5 C 618.921875 496.144531 616.691406 496.234375 615.558594 493.265625 C 612.414062 485.03125 609.625 473.976562 610.417969 466.203125 C 610.511719 465.289062 610.496094 463.566406 610.359375 463.546875 C 606.351562 463.03125 606.796875 457.5625 602.96875 457.378906 C 602.601562 458.082031 602.234375 458.367188 601.867188 458.65625 C 601.75 458.261719 601.441406 457.613281 601.554688 457.523438 C 601.90625 457.261719 602.371094 457.152344 602.8125 457.011719 C 601.96875 454.542969 609.828125 455.996094 604.910156 452.222656 C 608.617188 450.070312 604.808594 445.046875 608.476562 442.875 C 605.066406 439.976562 607.398438 436.078125 606.703125 432.707031 C 606.1875 432.289062 605.671875 431.875 605.15625 431.457031 C 605.671875 431.25 606.1875 431.046875 606.703125 430.839844 C 607.324219 429.855469 608.527344 428.835938 608.464844 427.894531 C 608.222656 424.121094 609.851562 420.039062 606.90625 416.640625 C 609.804688 413.664062 610.519531 410.035156 610.511719 405.996094 C 610.507812 403.40625 609.25 400.363281 612.160156 398.332031 C 609.308594 397.070312 613.527344 393.605469 610.28125 392.3125 C 609.777344 392.113281 609.320312 390.183594 609.628906 389.894531 C 610.304688 389.257812 613.019531 390.777344 611.40625 387.710938 C 611.03125 387 612.886719 385.207031 613.550781 383.832031 C 613.910156 383.082031 614.347656 381.6875 614.027344 381.398438 C 610.546875 378.3125 612.417969 377.0625 615.660156 376.171875 C 613.328125 370.546875 619.636719 367.582031 619.839844 362.660156 C 619.921875 360.746094 621.949219 358.171875 621.25 357.121094 C 619.628906 354.691406 619.65625 354.171875 622.558594 354.339844 C 623.179688 354.378906 624.234375 354.5625 624.355469 354.3125 C 625.816406 351.367188 627.195312 348.375 628.441406 345.332031 C 628.644531 344.835938 628.117188 344.039062 627.929688 343.378906 C 634.023438 344.027344 634.976562 339.226562 636.535156 335.164062 C 638.445312 330.195312 641.875 326.414062 646.738281 324.800781 C 650.332031 323.609375 651.738281 321.9375 651.527344 318.394531 C 651.503906 317.988281 652.152344 317.539062 652.492188 317.113281 C 654.878906 320.546875 656.449219 317.140625 656.933594 316.007812 C 657.964844 313.601562 660.734375 319.769531 661.011719 314.839844 C 661.109375 313.171875 663.449219 311.445312 665.078125 310.144531 C 665.679688 309.667969 667.714844 310.855469 668.1875 310.378906 C 669.378906 309.191406 669.839844 306.425781 670.964844 306.207031 C 673.242188 305.761719 673.304688 304.386719 674.246094 302.898438 C 676.3125 299.640625 677.523438 304.460938 679.5625 304.003906 C 680.445312 303.804688 682.097656 304.195312 682.21875 303.871094 C 683.714844 299.910156 688.789062 301.589844 690.242188 298.378906 C 689.539062 298.007812 689.253906 297.640625 688.964844 297.273438 C 689.359375 297.15625 690.007812 296.847656 690.09375 296.960938 C 690.367188 297.320312 690.472656 297.800781 690.621094 298.253906 C 692.453125 297.6875 694.011719 297.1875 695.4375 296.480469 C 696.988281 295.714844 699.375 294.96875 699.710938 293.75 C 700.558594 290.675781 701.835938 288.957031 705.1875 289.015625 C 707.464844 289.058594 709.652344 284.953125 712.148438 288.886719 C 712.28125 289.09375 714.441406 288.488281 715.125 287.761719 C 716.070312 286.757812 716.28125 285.066406 717.222656 284.058594 C 718.222656 282.984375 719.761719 286.433594 721.164062 283.832031 C 721.867188 282.53125 723.132812 281.367188 724.414062 280.578125 C 725.964844 279.628906 728.847656 278.128906 729.34375 278.632812 C 732.011719 281.367188 735.007812 276.984375 737.800781 279.566406 C 739.261719 280.914062 742.167969 276.808594 744.542969 279.652344 C 744.648438 279.777344 746.257812 279.117188 746.550781 278.519531 C 747.070312 277.472656 746.308594 274.714844 748.707031 277.222656 C 749.652344 278.21875 749.855469 279.90625 750.769531 280.960938 C 751.800781 282.144531 752.800781 279.144531 754.800781 281.054688 C 758.445312 284.542969 758.902344 284.261719 762.925781 281.066406 C 764.980469 279.4375 766.074219 278.351562 767.367188 281.914062 C 767.851562 283.25 770.769531 283.703125 772.578125 284.554688 C 773.011719 283.632812 773.445312 282.707031 773.882812 281.785156 C 774.316406 282.839844 774.53125 284.597656 775.230469 284.816406 C 776.960938 285.363281 779.402344 286.832031 779.796875 283.449219 C 779.09375 283.082031 778.808594 282.714844 778.519531 282.347656 C 778.910156 282.230469 779.5625 281.921875 779.648438 282.035156 C 779.945312 282.425781 780.039062 282.96875 780.214844 283.449219 C 780.03125 283.449219 779.863281 283.449219 779.796875 283.449219 C 782.5 285.207031 784.78125 286.964844 787.066406 288.722656 C 791.011719 286.5625 793.316406 291.074219 796.980469 291.15625 C 800.433594 291.234375 803.472656 294.03125 807.613281 293.347656 C 809.691406 293.003906 812.949219 294.800781 814.367188 296.636719 C 816.769531 299.742188 819.082031 294.464844 821.09375 297.222656 C 822.601562 299.292969 824.183594 298.53125 825.558594 296.875 C 826.652344 298.351562 827.707031 299.859375 828.871094 301.277344 C 829.210938 301.6875 829.90625 302.132812 830.367188 302.0625 C 836.066406 301.199219 840.078125 305.660156 845.257812 306.703125 C 852.308594 308.125 857.425781 312.613281 860.496094 319.308594 C 861.066406 320.550781 862.398438 321.4375 863.378906 322.488281 C 866.984375 318.222656 865.378906 324.136719 866.667969 324.171875 C 871.824219 324.304688 867.640625 327.003906 867.945312 328.484375 C 868.230469 329.871094 868.515625 331.617188 869.464844 332.453125 C 874.707031 337.085938 878.449219 342.613281 881.085938 349.097656 C 881.914062 351.132812 885.367188 351.507812 885.78125 354.347656 C 887.074219 353.726562 888.335938 353.023438 889.679688 352.523438 C 890.171875 352.335938 890.898438 352.507812 891.410156 352.75 C 891.613281 352.847656 891.679688 353.894531 891.535156 353.964844 C 886.625 356.425781 889.964844 359.914062 890.195312 363.117188 C 890.355469 365.375 890.359375 367.886719 892.558594 368.578125 C 895.980469 369.652344 897.167969 373.042969 900.085938 374.695312 C 902.4375 376.03125 905.757812 377.105469 905.652344 381.53125 C 905.609375 383.453125 909.617188 384.957031 909.214844 388.441406 C 909.144531 389.03125 912.585938 390.089844 914.453125 390.796875 C 915.015625 391.007812 915.753906 390.765625 916.410156 390.734375 C 916.410156 391.664062 916.410156 392.59375 916.410156 393.527344 C 918.601562 394.199219 920.148438 395.398438 920.148438 397.949219 C 920.148438 400.046875 919.636719 402.332031 921.9375 403.722656 C 917.40625 407.554688 923.863281 405.96875 923.964844 407.722656 C 924.035156 409.007812 925.730469 410.992188 925.355469 411.386719 C 922.835938 414.035156 924.738281 414 926.75 414.191406 C 926.917969 414.207031 927.21875 415.332031 927.105469 415.40625 C 923.925781 417.488281 928.8125 418.449219 927.832031 420.714844 C 927.246094 422.070312 928.523438 424.730469 929.695312 426.230469 C 931.394531 428.40625 932.132812 430.105469 930.503906 432.703125 C 928.644531 435.679688 928.707031 439.019531 930.492188 442.070312 C 932.164062 444.921875 930.273438 448.765625 933.199219 451.195312 C 931.269531 453.507812 932.933594 456.546875 932.148438 458.523438 C 931.109375 461.132812 933.332031 461.996094 933.457031 463.910156 C 934.105469 473.734375 931.640625 483.246094 931.261719 492.9375 C 931.203125 494.464844 927.972656 495.75 930.023438 497.464844 C 932.886719 499.851562 928.078125 500.589844 929.273438 502.828125 C 929.804688 503.816406 927.898438 505.886719 927.664062 507.546875 C 926.976562 512.472656 925.351562 517.109375 924.054688 521.863281 C 922.773438 526.566406 919.378906 530.203125 919.167969 535.402344 C 919.4375 535.730469 919.652344 536.03125 919.132812 535.863281 C 919.773438 536.621094 919.46875 537.019531 919.398438 536.980469 C 919.066406 536.800781 918.773438 536.554688 918.476562 536.3125 C 916.726562 537.503906 915.414062 538.988281 914.617188 540.71875 C 913.664062 542.792969 912.828125 545.132812 912.785156 547.371094 C 912.722656 550.839844 909.511719 551.617188 908.136719 553.878906 C 907.691406 554.609375 907.007812 555.535156 907.152344 556.222656 C 907.894531 559.859375 905.472656 561.148438 903.023438 562.847656 C 901.117188 564.167969 898.960938 565.746094 899.496094 568.851562 C 899.582031 569.347656 898.078125 570.636719 897.277344 570.667969 C 895.160156 570.746094 894.050781 570.9375 893.886719 573.640625 C 893.6875 576.894531 891.957031 579.867188 889.304688 581.90625 C 887.921875 582.96875 889.347656 585.683594 886.398438 585.777344 C 882.480469 585.898438 879.800781 589.289062 878.125 591.824219 C 876.03125 594.980469 872.234375 597.859375 873.320312 602.921875 C 873.785156 605.105469 872.164062 603.585938 871.210938 603.089844 C 870.148438 602.535156 870.039062 599.851562 867.945312 601.507812 C 869.402344 605.246094 863.984375 603.152344 864.007812 606.3125 C 864.023438 608.984375 860.464844 607.988281 858.945312 609.386719 C 856.828125 606.625 855.15625 608.339844 853.8125 610.09375 C 848.601562 616.898438 848.636719 616.90625 839.898438 619.316406 C 839.203125 619.511719 838.464844 620.160156 838.085938 620.800781 C 836.761719 623.035156 834.964844 625.230469 834.492188 627.667969 C 833.730469 631.617188 832.402344 631.9375 828.761719 630.714844 C 826.988281 630.121094 824.390625 634.226562 822.054688 630.605469 C 821.394531 631.722656 820.738281 632.839844 820.078125 633.957031 C 817.683594 631.210938 817.878906 633.253906 817.292969 635.171875 C 817.011719 636.097656 815.140625 636.535156 813.988281 637.195312 C 816.460938 639.328125 815.414062 639.800781 812.835938 639.910156 C 812.152344 639.941406 811.511719 640.957031 810.855469 641.523438 C 807.382812 636.957031 805.097656 642.015625 802.582031 642.890625 C 799.917969 643.820312 796.746094 644.257812 795.007812 647.636719 C 792.507812 652.5 789.484375 646.253906 786.605469 647.421875 C 786.339844 647.53125 786.179688 648.007812 785.933594 648.042969 C 783.183594 648.433594 780.355469 649.332031 777.6875 648.988281 C 774.367188 648.558594 770.988281 645.8125 768.511719 650.445312 C 768.5 650.46875 767.296875 649.628906 766.613281 649.5625 C 764.191406 649.332031 761.710938 648.921875 759.335938 649.226562 C 757.097656 649.511719 754.203125 649.984375 752.953125 651.496094 C 750.441406 654.535156 749.171875 649.019531 747.734375 651.046875 C 745.476562 654.238281 743.722656 650.191406 741.742188 650.984375 C 740.941406 651.304688 740.105469 651.535156 739.289062 651.804688 C 739.652344 652.683594 740.015625 653.5625 740.382812 654.441406 C 738.867188 654.539062 737.347656 654.761719 735.84375 654.671875 C 735.035156 654.625 734.257812 653.734375 733.46875 653.742188 C 728.484375 653.785156 724.082031 649.183594 718.460938 652.660156 C 715.71875 654.355469 711.269531 651.507812 708.234375 654.574219 C 706.429688 650.621094 701.289062 656.53125 699.777344 651.714844 C 698.890625 652.097656 698.03125 652.558594 697.117188 652.847656 C 692.960938 654.152344 689.28125 655.066406 684.394531 653.707031 C 679.507812 652.347656 673.613281 650.210938 667.890625 653.726562 C 666.414062 654.636719 662.972656 653.019531 660.523438 654.632812 C 660.242188 654.820312 659.175781 653.625 658.386719 653.273438 C 656.554688 652.449219 654.601562 651.882812 652.824219 650.957031 C 650.765625 649.886719 648.855469 647.578125 646.871094 647.570312 C 644.535156 647.558594 642.191406 649.449219 639.84375 650.488281 C 639.320312 650.71875 638.410156 651.125 638.246094 650.941406 C 637.5625 650.1875 636.601562 649.183594 636.679688 648.363281 C 636.78125 647.328125 637.796875 646.382812 638.421875 645.398438 C 636.554688 644.773438 634.6875 644.152344 632.824219 643.945312 C 632.453125 644.648438 632.085938 644.9375 631.71875 645.222656 C 631.601562 644.832031 631.292969 644.183594 631.410156 644.09375 C 631.707031 643.867188 632.09375 643.757812 632.472656 643.640625 C 631.425781 642.691406 630.050781 642.140625 629.761719 641.25 C 628.777344 638.210938 627.792969 637.320312 625.703125 640.386719 C 624 642.882812 623 640.429688 622.519531 639.589844 C 621.839844 638.390625 622.128906 636.664062 621.554688 635.359375 C 621.089844 634.304688 619.683594 632.65625 619.1875 632.8125 C 617.984375 633.199219 616.144531 634.515625 616.175781 635.394531 C 616.433594 642.300781 614.121094 638.617188 611.867188 636.648438 C 610.582031 635.527344 608.917969 634.835938 607.40625 633.988281 C 606.617188 633.542969 606.066406 631.472656 604.917969 633.398438 C 604.613281 633.910156 605.09375 635.5625 605.582031 635.757812 C 608.730469 637 609.707031 640.863281 613.199219 641.707031 C 616.894531 642.605469 617.625 646.851562 620.421875 648.636719 C 621.796875 649.515625 624.453125 650.621094 625.445312 647.265625 C 625.675781 646.480469 626.972656 646.011719 627.78125 645.398438 C 628.21875 646.070312 629.09375 646.804688 629.019531 647.414062 C 628.597656 650.761719 630.671875 652.054688 632.828125 654.207031 C 636.902344 658.289062 639.953125 663.292969 646.371094 664.132812 C 646.902344 664.199219 647.164062 665.542969 647.769531 665.996094 C 651.042969 668.445312 653.71875 672.167969 659.015625 670.757812 C 658.992188 670.734375 658.96875 670.710938 658.941406 670.683594 C 659.304688 670.390625 659.667969 670.09375 659.484375 670.660156 C 660.242188 670.019531 660.640625 670.324219 660.601562 670.394531 C 660.441406 670.691406 660.226562 670.957031 660.007812 671.226562 C 662.03125 673.320312 665.09375 674.179688 666.632812 674.125 C 667.722656 674.085938 669.183594 674.886719 669.855469 674.417969 C 671.277344 673.417969 672.621094 672.609375 673.726562 674.253906 C 676.605469 678.535156 680.894531 676.984375 684.699219 677.042969 C 687.960938 677.089844 692.414062 676.808594 694.03125 677.832031 C 695.433594 678.714844 696.480469 679.738281 697.921875 678.230469 C 700.078125 675.960938 701.003906 680.339844 703.277344 679.078125 C 705.242188 677.984375 707.664062 677.332031 709.914062 677.230469 C 712.046875 677.132812 715.015625 679.097656 716.21875 678.226562 C 718.957031 676.238281 721.609375 677.554688 724.230469 677.164062 C 726.054688 676.894531 728.023438 677.429688 729.796875 677.019531 C 731.410156 676.648438 732.296875 680.667969 734.054688 677.5625 C 736.429688 679.707031 738.4375 676.859375 740.722656 677.058594 C 743.5 677.292969 746.324219 677.273438 749.109375 677.066406 C 751.71875 676.871094 754.164062 676.761719 756.910156 675.699219 C 761.765625 673.828125 767.425781 674.042969 772.75 673.382812 C 777.503906 670.542969 778.71875 670.121094 780.355469 670.726562 C 783.167969 671.765625 786.96875 671.601562 790.464844 671.660156 C 793.34375 671.707031 796.011719 669.167969 799.160156 671.378906 C 800.335938 672.203125 802.992188 672.015625 802.675781 668.964844 C 802.671875 668.914062 803.871094 668.496094 804.359375 668.667969 C 806.691406 669.496094 809.277344 666.664062 811.441406 669.207031 C 812.226562 668.195312 812.683594 668.039062 814.128906 668.832031 C 816.636719 670.210938 814.976562 667.046875 815.992188 666.523438 C 817.078125 665.964844 818.191406 664.886719 819.246094 664.941406 C 822.824219 665.113281 822.839844 665.316406 826.4375 662.1875 C 825.734375 661.820312 825.449219 661.453125 825.160156 661.082031 C 825.554688 660.96875 826.203125 660.65625 826.292969 660.773438 C 826.585938 661.164062 826.683594 661.707031 826.855469 662.1875 C 826.675781 662.1875 826.503906 662.1875 826.4375 662.1875 C 830.1875 663.351562 833.191406 657.261719 836.722656 661.71875 C 836.820312 661.839844 837.761719 661.589844 837.964844 661.285156 C 838.921875 659.832031 839.53125 658.089844 840.695312 656.859375 C 841.96875 655.519531 844.929688 653.539062 845.070312 653.695312 C 847.214844 656.101562 847.933594 651.796875 849.578125 652.859375 C 851.125 648.886719 855.257812 648.75 858.34375 647.394531 C 863.316406 645.210938 870.0625 640.441406 872.261719 636.371094 C 872.773438 635.425781 874.875 634.578125 877.101562 634.152344 C 877.824219 634.015625 878.511719 633.375 879.074219 632.820312 C 879.792969 632.113281 880.398438 630.566406 880.996094 630.589844 C 883.632812 630.707031 885.226562 630.140625 884.691406 627.089844 C 884.136719 623.9375 885.070312 622.339844 888.625 622.957031 C 890.109375 623.214844 892.492188 623.503906 893.042969 622.746094 C 893.964844 621.46875 893.4375 619.230469 894.113281 617.652344 C 894.710938 616.265625 895.925781 614.511719 897.207031 614.15625 C 904.367188 612.171875 904.234375 612.140625 908.222656 608.003906 C 910.460938 605.679688 914.382812 604.503906 915.710938 601.882812 C 917.597656 598.148438 920.648438 595.808594 923.242188 592.925781 C 924.582031 591.4375 926.355469 590.304688 924.085938 588.277344 C 925.625 586.226562 927.164062 584.175781 928.703125 582.128906 C 931.261719 585.601562 932.375 581.863281 933.203125 580.824219 C 935.363281 578.117188 936.804688 574.847656 938.828125 572.019531 C 944.433594 564.191406 947.285156 554.984375 951.746094 546.578125 C 954.566406 541.257812 958.484375 536.1875 957.609375 529.359375 C 957.347656 527.308594 958.6875 524.894531 959.71875 522.859375 C 963.941406 514.507812 965.03125 512.058594 964.855469 507.300781 C 964.710938 503.296875 965.355469 499.671875 967.515625 496.242188 C 968.253906 495.074219 969.035156 492.65625 968.527344 492.191406 C 964.933594 488.890625 968.769531 486.371094 969.144531 483.546875 C 969.234375 482.867188 969.914062 481.65625 969.898438 481.648438 C 965.96875 479.90625 971.339844 477.351562 969.324219 474.867188 C 968.507812 473.859375 970.472656 470.28125 971.605469 468.097656 C 972.722656 465.953125 973.277344 463.769531 971.183594 462.449219 "/></g><path style=" stroke:none;fill-rule:nonzero;fill:#dec449;fill-opacity:1;" d="M 659.859375 373.113281 C 659.832031 373.078125 659.804688 373.039062 659.773438 373.003906 C 659.546875 373.234375 659.316406 373.460938 659.085938 373.691406 C 659.328125 373.644531 659.527344 373.570312 659.800781 373.546875 C 659.789062 373.386719 659.84375 373.261719 659.859375 373.113281 "/><path style=" stroke:none;fill-rule:nonzero;fill:#dec449;fill-opacity:1;" d="M 843.761719 381.410156 C 843.722656 381.441406 843.6875 381.46875 843.648438 381.5 C 843.925781 381.777344 844.203125 382.054688 844.476562 382.332031 C 844.515625 382.285156 844.554688 382.238281 844.59375 382.1875 C 844.449219 381.960938 844.292969 381.75 844.1875 381.476562 C 844.027344 381.484375 843.902344 381.4375 843.761719 381.410156 "/><path style=" stroke:none;fill-rule:nonzero;fill:#dec449;fill-opacity:1;" d="M 849.484375 389.203125 C 849.585938 389.304688 849.683594 389.40625 849.78125 389.503906 C 849.785156 389.3125 849.777344 389.144531 849.785156 388.9375 C 849.675781 389.050781 849.585938 389.117188 849.484375 389.203125 "/><path style=" stroke:none;fill-rule:nonzero;fill:#dec449;fill-opacity:1;" d="M 797.914062 561.542969 C 797.886719 561.507812 797.863281 561.476562 797.835938 561.441406 C 797.691406 561.582031 797.550781 561.726562 797.40625 561.867188 C 797.5625 561.914062 797.695312 561.917969 797.859375 561.984375 C 797.859375 561.8125 797.902344 561.695312 797.914062 561.542969 "/><path style=" stroke:none;fill-rule:nonzero;fill:#dec449;fill-opacity:1;" d="M 659.015625 670.757812 C 659.269531 671.011719 659.523438 671.265625 659.773438 671.515625 C 659.851562 671.417969 659.929688 671.324219 660.007812 671.226562 C 659.828125 671.042969 659.644531 670.863281 659.484375 670.660156 C 659.316406 670.714844 659.175781 670.714844 659.015625 670.757812 "/><path style=" stroke:none;fill-rule:nonzero;fill:#dec449;fill-opacity:1;" d="M 919.167969 535.402344 C 919.148438 535.371094 919.128906 535.347656 919.105469 535.320312 C 918.828125 535.597656 918.550781 535.875 918.273438 536.152344 C 918.34375 536.203125 918.410156 536.261719 918.476562 536.3125 C 918.695312 536.164062 918.898438 536.003906 919.132812 535.863281 C 919.132812 535.703125 919.164062 535.558594 919.167969 535.402344 "/><path style=" stroke:none;fill-rule:nonzero;fill:#dec449;fill-opacity:1;" d="M 810.894531 553.980469 C 810.699219 554.171875 810.503906 554.367188 810.3125 554.5625 C 810.578125 554.507812 810.789062 554.488281 810.921875 554.519531 C 810.902344 554.320312 810.898438 554.148438 810.894531 553.980469 "/><path style=" stroke:none;fill-rule:nonzero;fill:#dec449;fill-opacity:1;" d="M 785.988281 405.933594 C 786.0625 406.007812 786.136719 406.078125 786.207031 406.15625 C 786.257812 406.011719 786.300781 405.871094 786.351562 405.730469 C 786.21875 405.8125 786.113281 405.859375 785.988281 405.933594 "/><path style=" stroke:none;fill-rule:nonzero;fill:#dec449;fill-opacity:1;" d="M 654.316406 380.640625 C 654.269531 380.585938 654.226562 380.527344 654.179688 380.46875 C 653.972656 380.671875 653.769531 380.875 653.5625 381.078125 C 653.78125 381.058594 653.957031 381.007812 654.203125 381.007812 C 654.246094 380.890625 654.277344 380.761719 654.316406 380.640625 "/><path style=" stroke:none;fill-rule:nonzero;fill:#dec449;fill-opacity:1;" d="M 639.1875 419.734375 C 638.882812 420.007812 638.421875 420.324219 638.46875 420.503906 C 638.507812 420.648438 638.574219 420.785156 638.617188 420.929688 C 638.886719 420.820312 639.117188 420.699219 639.421875 420.601562 C 639.339844 420.304688 639.261719 420.019531 639.1875 419.734375 "/><path style=" stroke:none;fill-rule:nonzero;fill:#dec449;fill-opacity:1;" d="M 735.566406 486.089844 C 735.75 486.304688 735.953125 486.570312 736.113281 486.695312 C 736.210938 486.40625 736.304688 486.109375 736.390625 485.8125 C 736.113281 485.933594 735.839844 486.011719 735.566406 486.089844 "/><path style=" stroke:none;fill-rule:nonzero;fill:#dec449;fill-opacity:1;" d="M 637.199219 431.03125 C 636.980469 431.242188 636.769531 431.457031 636.554688 431.671875 C 636.671875 431.765625 636.785156 431.859375 636.902344 431.953125 C 637.070312 431.761719 637.214844 431.589844 637.410156 431.382812 C 637.3125 431.253906 637.269531 431.148438 637.199219 431.03125 "/><path style=" stroke:none;fill-rule:nonzero;fill:#dec449;fill-opacity:1;" d="M 866.886719 459.878906 C 866.601562 459.753906 865.945312 459.476562 865.292969 459.195312 C 865.082031 459.703125 864.613281 460.28125 864.722656 460.703125 C 864.882812 461.296875 865.472656 461.773438 865.878906 462.300781 C 866.089844 461.792969 866.300781 461.289062 866.886719 459.878906 "/><path style=" stroke:none;fill-rule:nonzero;fill:#dec449;fill-opacity:1;" d="M 792.683594 460.75 C 792.480469 460.542969 792.230469 460.140625 792.078125 460.171875 C 791.644531 460.269531 791.25 460.542969 790.839844 460.75 C 791.046875 460.953125 791.292969 461.359375 791.445312 461.324219 C 791.882812 461.230469 792.273438 460.953125 792.683594 460.75 "/><path style=" stroke:none;fill-rule:nonzero;fill:#dec449;fill-opacity:1;" d="M 845.941406 460.484375 C 845.695312 460.234375 845.488281 460.03125 845.285156 459.824219 C 845.082031 460.234375 844.804688 460.628906 844.707031 461.066406 C 844.671875 461.214844 845.082031 461.464844 845.285156 461.671875 C 845.507812 461.269531 845.726562 460.871094 845.941406 460.484375 "/><path style=" stroke:none;fill-rule:nonzero;fill:#dec449;fill-opacity:1;" d="M 852.667969 459.824219 C 852.445312 460.226562 852.222656 460.628906 852.011719 461.015625 C 852.257812 461.261719 852.460938 461.464844 852.667969 461.671875 C 852.871094 461.261719 853.144531 460.867188 853.246094 460.433594 C 853.277344 460.28125 852.871094 460.03125 852.667969 459.824219 "/><path style=" stroke:none;fill-rule:nonzero;fill:#dec449;fill-opacity:1;" d="M 847.320312 461.570312 C 847.34375 461.582031 847.402344 461.53125 847.472656 461.460938 C 847.667969 461.460938 847.859375 461.460938 848.054688 461.460938 C 847.882812 460.984375 847.789062 460.449219 847.496094 460.0625 C 847.460938 460.015625 847.328125 460.046875 847.167969 460.09375 C 847.121094 460.039062 847.074219 459.980469 847.03125 459.925781 C 846.921875 460.035156 846.808594 460.148438 846.699219 460.257812 C 846.585938 460.300781 846.472656 460.339844 846.378906 460.367188 C 846.40625 460.40625 846.4375 460.445312 846.472656 460.484375 C 846.382812 460.574219 846.292969 460.660156 846.207031 460.75 C 846.570312 461.03125 846.917969 461.351562 847.320312 461.570312 "/><path style=" stroke:none;fill-rule:nonzero;fill:#dec449;fill-opacity:1;" d="M 628.71875 460.539062 C 628.285156 459.949219 627.925781 459.460938 627.570312 458.980469 C 627.242188 459.40625 626.625 459.84375 626.648438 460.25 C 626.6875 461.015625 627.09375 461.761719 627.351562 462.515625 C 627.71875 462.039062 628.105469 461.535156 628.582031 460.921875 C 628.804688 461.148438 629.027344 461.371094 629.253906 461.597656 C 629.535156 461.230469 629.855469 460.886719 630.074219 460.484375 C 630.109375 460.417969 629.71875 460.113281 629.503906 459.902344 C 629.242188 460.113281 628.980469 460.328125 628.71875 460.539062 "/><path style=" stroke:none;fill-rule:nonzero;fill:#dec449;fill-opacity:1;" d="M 841.015625 460.433594 C 841.113281 460.867188 841.390625 461.261719 841.59375 461.671875 C 841.796875 461.464844 842.003906 461.261719 842.25 461.015625 C 842.035156 460.628906 841.816406 460.226562 841.59375 459.824219 C 841.390625 460.03125 840.984375 460.28125 841.015625 460.433594 "/></g></svg>